<?xml version="1.0" encoding="utf-8"?>
<!-- Generator: Adobe Illustrator 19.0.0, SVG Export Plug-In . SVG Version: 6.00 Build 0)  -->
<svg version="1.1" id="Layer_1" xmlns="http://www.w3.org/2000/svg" xmlns:xlink="http://www.w3.org/1999/xlink" x="0px" y="0px"
	 viewBox="174 117 960 560" style="enable-background:new 174 117 960 560;" xml:space="preserve">
<style type="text/css">
	.st0{fill:none;stroke:#C7B299;stroke-width:8;}
	.st1{fill:#C7B299;}
	.st2{fill:none;}
	.st3{enable-background:new    ;}
	.st4{fill:#ABD4E4;}
</style>
<g id="Layer_3">
	<g>
		<path class="st0" d="M563.1,455.9"/>
		<path class="st0" d="M563.6,455.8c2.6,64.1,56.9,114,121,111.4l0,0c64.1-2.6,114-56.9,111.4-121"/>
	</g>
	<g>
		<g id="XMLID_1_">
		</g>
	</g>
	<g>
		<g id="XMLID_2_">
			<g>
				<path class="st1" d="M673.1,129.9c0.4-6.2,7-6,7.8-0.4c-0.5,6.2-1.4,12.1-1.2,18c0.3,16.1,0.5,32.3,1.8,48.4
					c0.6,7.1,3.8,14,6.1,20.9c3.2,9.9,7.4,19.7,9.5,29.8c2.6,12.5-0.8,24.4-7.6,36c3.6,0.9,6.7,1.6,10.7,2.6
					c-2.9,2.3-5.3,4.2-8.5,6.8c5.4,2.8,9.5,4.9,14.2,7.4c-4,1.7-7.6,3.2-11.1,4.8c9.7,14.7,9.4,17.5-3.9,27.5c6,9,12.1,18,18.5,27.5
					c-3,0-5.2,0.1-8.1,0.1c0.2,2.2,0.4,4,0.7,6.4c-1.6,0.4-3.3,0.8-5.5,1.4c5.5,7.3,7,15.5,6.2,24.3c-0.9,9.1-5,16.5-13.2,22.6
					c2.5,0.9,4.2,1.7,6,2.1c5.4,1.1,8.3,3.8,6.1,10.2c-1.6,0.2-3.7,0.5-5.4,0.7c4,4.8,8.7,9.2,11.9,14.4
					c12.1,19.2,4.5,36.8-14.2,46.4c-3.5,1.8-13,3-15.3,3c-5.8-2.3-9.5-2.7-14.7-5.8c-8.6-5.2-15.2-9.1-17.3-18.5
					c0-2.7-0.1-5.3-0.1-8c1.9-5.3,3.2-11,5.9-15.7c3.2-5.5,7.7-10.2,11.8-15.3c-1.6-0.1-3.6-0.3-5.5-0.5c-1.7-8.2-1.7-8.2,9.6-12.2
					c-5.4-8-16.5-15-4.9-26c-8.2-9.7-7.9-12.7,2.6-23.3c-2.3-2.4-4.7-4.9-7.2-7.6c2-1.3,3.7-2.4,6-3.9c-3-2.5-5.7-4.8-9.4-7.9
					c4.2-1.2,7-2,8.9-2.5c-0.1-8.9-0.2-17.2-0.2-25.6c0-1.3,0.4-2.8,1.2-3.8c2.5-3.5,1.9-6.4-1.8-8.7c0.8-1.3,1.5-2.3,2.2-3.5
					c-2.1-1.1-3.9-2.1-6.3-3.4c16.7-9.2,29.4-21,30.1-40.9c0.6-20.2-11.3-32.1-29.2-39.6c3-2.2,5.6-4.2,8.6-6.4
					c-1.2-2-2.4-4-3.7-6.1c2.5-0.5,4.8-1,6.2-1.3C672,179.3,672.5,154.9,673.1,129.9z M691.8,311.7c-2.6-3.7-6.6-4.4-10.7-3.6
					c-6,1.2-9.5,5.2-10.9,11c-3.8,15.1,9.2,30.7,26.8,31.6c-4.3-7.2-8.4-14.2-11.3-19.2c2.3-3.3,4.1-5.9,5.8-8.6
					C693.6,319.3,694.3,315.4,691.8,311.7z M692.4,374.6c-6.4-8.4-20.1-8.2-24.7,0c2.7,2.1,6.6,3.8,7.7,6.5c0.8,2.1-2,5.6-3.2,8.6
					c6,4.1,5.5,5.3-5.5,12.2c5.4,8.8,19.1,8.6,25.7-0.1C697.8,394.8,697.8,381.7,692.4,374.6z"/>
			</g>
		</g>
	</g>
	
		<ellipse transform="matrix(-0.9999 1.020049e-02 -1.020049e-02 -0.9999 1366.0135 909.1719)" class="st1" cx="680.7" cy="458.1" rx="34.9" ry="34.5"/>
	<g>
		<path class="st0" d="M796.8,446.5"/>
		<path class="st0" d="M588,380.6c-16,20.9-25.1,47.2-24,75.5 M796.3,446.5c-1-24-10.2-47.7-23.5-65.7"/>
	</g>
	<path class="st0" d="M884,314"/>
	<path class="st0" d="M511,314"/>
	<g>
		<path class="st0" d="M562.7,457.3"/>
		<path class="st0" d="M563.1,457.3c2.6,64.1,56.9,114,121,111.4l0,0c64.1-2.6,114-56.9,111.4-121"/>
	</g>
	<g>
		<path class="st0" d="M796.3,447.9"/>
		<path class="st0" d="M587.5,382c-16,20.9-25.1,47.2-24,75.5 M795.9,448c-1-24-10.2-47.7-23.5-65.7"/>
	</g>
	<g>
		<path class="st0" d="M503.5,463.4"/>
		<path class="st0" d="M504.2,463.4c4,97.1,86.4,172.9,183.6,168.9l0,0c97.2-4,173.1-86.3,169.1-183.4"/>
	</g>
	<g>
		<path class="st0" d="M857.2,451.2"/>
		<path class="st0" d="M540.3,351.3c-24.3,31.6-38.1,71.6-36.4,114.5 M856.6,451.2c-1.5-36.1-13.8-69.2-33.6-96.4
			c-0.2-0.3-0.4-0.5-0.6-0.8"/>
	</g>
</g>
<g id="Layer_4">
</g>
<g id="Layer_2">
	<g id="Layer_1_1_">
		<rect x="252.7" y="261.3" class="st2" width="631.3" height="131.6"/>
		<g class="st3">
			<path class="st4" d="M311.2,329.8l1.6,2.3c-2.7,1.5-5.5,2.8-8.6,3.7c-3,0.9-6.2,1.3-9.6,1.3c-4.9,0-9.6-0.9-13.9-2.8
				c-4.3-1.9-8.1-4.4-11.4-7.7c-3.2-3.2-5.8-7-7.6-11.3c-1.9-4.3-2.8-9-2.8-13.9c0-4.9,0.9-9.6,2.8-13.9c1.9-4.4,4.4-8.2,7.6-11.4
				c3.2-3.2,7-5.8,11.4-7.7c4.3-1.9,9-2.8,13.9-2.8c3.4,0,6.6,0.4,9.6,1.3c3,0.9,5.9,2.1,8.7,3.7c-0.4,0.7-0.9,1.4-1.6,2.3
				c-5-3.1-10.6-4.6-16.7-4.6c-4.5,0-8.8,0.9-12.8,2.6c-4,1.8-7.5,4.2-10.5,7.2c-3,3-5.3,6.5-7,10.5c-1.7,4-2.6,8.3-2.6,13
				c0,4.5,0.9,8.8,2.6,12.8c1.7,4,4.1,7.5,7,10.5c2.9,3,6.4,5.3,10.4,7c4,1.7,8.2,2.6,12.8,2.6c3.1,0,6-0.4,8.8-1.2
				C306,332.4,308.7,331.2,311.2,329.8z"/>
			<path class="st4" d="M330.7,261.3h2.8v42.8l-0.3,4.5c1.3-3.2,3.5-5.8,6.4-7.6c2.9-1.9,6.2-2.9,10-2.9c3.6,0,6.5,1,8.6,3.1
				c2.1,2.1,3.2,4.8,3.3,8.1v27h-2.8v-26.8c-0.1-2.3-1-4.3-2.5-6c-1.5-1.7-3.7-2.6-6.6-2.7c-2.1,0-4.2,0.3-6.1,1
				c-2,0.7-3.7,1.7-5.1,3c-1.5,1.3-2.6,2.8-3.5,4.5c-0.9,1.8-1.3,3.7-1.3,5.8v21.2h-2.8V261.3z"/>
			<path class="st4" d="M398.3,300.8c-2.1,0.1-4.1,0.5-6,1.2c-1.9,0.7-3.6,1.7-5,3c-1.4,1.3-2.6,2.8-3.4,4.5
				c-0.8,1.7-1.2,3.6-1.2,5.6v21.2h-2.8v-37.5h2.6v4.4c-0.1,0.9-0.1,1.8-0.1,2.7c0,0.9,0,1.8,0,2.7c1.5-3.3,3.7-5.8,6.6-7.6
				c2.9-1.8,6.1-2.8,9.5-2.9L398.3,300.8z"/>
			<path class="st4" d="M405.5,317.5c0-2.7,0.5-5.2,1.5-7.6c1-2.4,2.4-4.5,4.1-6.2c1.7-1.8,3.8-3.2,6.2-4.2c2.4-1,4.9-1.6,7.6-1.6
				c2.7,0,5.3,0.5,7.7,1.6c2.4,1,4.5,2.4,6.2,4.2c1.8,1.8,3.2,3.9,4.2,6.2c1,2.4,1.5,4.9,1.5,7.6c0,2.7-0.5,5.3-1.5,7.6
				c-1,2.4-2.4,4.4-4.2,6.2c-1.8,1.7-3.8,3.1-6.2,4.2c-2.4,1-5,1.5-7.7,1.5c-2.7,0-5.3-0.5-7.6-1.5c-2.4-1-4.4-2.4-6.2-4.2
				c-1.7-1.7-3.1-3.8-4.1-6.2C406,322.8,405.5,320.2,405.5,317.5z M408.3,317.5c0,2.3,0.4,4.5,1.3,6.5c0.9,2,2,3.8,3.5,5.3
				s3.3,2.7,5.3,3.5c2,0.9,4.2,1.3,6.6,1.3c2.3,0,4.5-0.4,6.5-1.3c2-0.9,3.8-2,5.4-3.5c1.5-1.5,2.7-3.3,3.6-5.3
				c0.9-2,1.3-4.2,1.3-6.5c0-2.3-0.4-4.5-1.3-6.5c-0.9-2-2.1-3.8-3.6-5.4c-1.5-1.5-3.3-2.7-5.4-3.6c-2-0.9-4.2-1.3-6.5-1.3
				c-2.3,0-4.5,0.4-6.6,1.3c-2,0.9-3.8,2.1-5.3,3.6c-1.5,1.5-2.7,3.3-3.5,5.4C408.7,313,408.3,315.2,408.3,317.5z"/>
			<path class="st4" d="M459.8,298.8h2.6v4.4c-0.1,0.9-0.1,1.8-0.1,2.7c0,0.9,0,1.8,0,2.7c1.3-3.2,3.5-5.8,6.4-7.6
				c2.9-1.9,6.3-2.9,10-2.9c3.6,0,6.5,1,8.6,3.1c2.1,2.1,3.2,4.8,3.3,8.1v27h-2.8v-26.8c-0.1-2.3-1-4.3-2.5-6
				c-1.5-1.7-3.7-2.6-6.6-2.7c-2.1,0-4.2,0.3-6.1,1c-2,0.7-3.7,1.7-5.1,3c-1.5,1.3-2.6,2.8-3.5,4.5c-0.9,1.8-1.3,3.7-1.3,5.8v21.2
				h-2.8V298.8z"/>
			<path class="st4" d="M501.9,317.5c0-2.7,0.5-5.2,1.5-7.6c1-2.4,2.4-4.5,4.1-6.2c1.7-1.8,3.8-3.2,6.2-4.2c2.4-1,4.9-1.6,7.6-1.6
				c2.7,0,5.3,0.5,7.7,1.6c2.4,1,4.5,2.4,6.2,4.2c1.8,1.8,3.2,3.9,4.2,6.2c1,2.4,1.5,4.9,1.5,7.6c0,2.7-0.5,5.3-1.5,7.6
				c-1,2.4-2.4,4.4-4.2,6.2c-1.8,1.7-3.8,3.1-6.2,4.2c-2.4,1-5,1.5-7.7,1.5c-2.7,0-5.3-0.5-7.6-1.5c-2.4-1-4.4-2.4-6.2-4.2
				c-1.7-1.7-3.1-3.8-4.1-6.2C502.4,322.8,501.9,320.2,501.9,317.5z M504.7,317.5c0,2.3,0.4,4.5,1.3,6.5c0.9,2,2,3.8,3.5,5.3
				s3.3,2.7,5.3,3.5c2,0.9,4.2,1.3,6.6,1.3c2.3,0,4.5-0.4,6.5-1.3c2-0.9,3.8-2,5.4-3.5c1.5-1.5,2.7-3.3,3.6-5.3
				c0.9-2,1.3-4.2,1.3-6.5c0-2.3-0.4-4.5-1.3-6.5c-0.9-2-2.1-3.8-3.6-5.4c-1.5-1.5-3.3-2.7-5.4-3.6c-2-0.9-4.2-1.3-6.5-1.3
				c-2.3,0-4.5,0.4-6.6,1.3c-2,0.9-3.8,2.1-5.3,3.6c-1.5,1.5-2.7,3.3-3.5,5.4C505.1,313,504.7,315.2,504.7,317.5z"/>
			<path class="st4" d="M592.5,317.5c0,2.7-0.5,5.3-1.5,7.6c-1,2.4-2.4,4.4-4.1,6.2c-1.8,1.7-3.8,3.1-6.2,4.2
				c-2.4,1-4.9,1.5-7.7,1.5c-4.1-0.1-7.7-1.2-10.8-3.2c-3.1-2.1-5.2-4.7-6.3-7.7c0,0.9,0,1.8,0,2.7c0,0.8,0,1.7,0,2.5v5h-2.6v-75
				h2.8v42.6c-0.1,0.9-0.1,1.7-0.1,2.5c0,0.8-0.1,1.6-0.1,2.5c0.5-1.5,1.4-2.9,2.5-4.2c1.1-1.3,2.4-2.5,3.8-3.5c1.5-1,3.1-1.8,5-2.4
				c1.8-0.6,3.8-0.8,5.8-0.8c2.7,0,5.3,0.5,7.7,1.5c2.4,1,4.4,2.4,6.2,4.2c1.8,1.7,3.1,3.8,4.1,6.2
				C592,312.3,592.5,314.8,592.5,317.5z M589.7,317.5c0-2.3-0.4-4.5-1.3-6.5c-0.9-2-2-3.8-3.5-5.4c-1.5-1.5-3.3-2.7-5.3-3.6
				c-2-0.9-4.2-1.3-6.5-1.3c-2.3,0-4.5,0.4-6.6,1.3c-2.1,0.9-3.9,2.1-5.4,3.6c-1.5,1.5-2.7,3.3-3.5,5.4c-0.9,2-1.3,4.2-1.3,6.5
				c0,2.3,0.4,4.5,1.3,6.5c0.9,2,2,3.8,3.5,5.3s3.3,2.7,5.4,3.5c2.1,0.9,4.3,1.3,6.6,1.3c2.3,0,4.5-0.4,6.5-1.3c2-0.9,3.8-2,5.3-3.5
				s2.7-3.3,3.5-5.3C589.3,322,589.7,319.8,589.7,317.5z"/>
			<path class="st4" d="M604.8,285.9c0-0.7,0.3-1.4,0.8-1.9c0.5-0.5,1.2-0.8,1.9-0.8c0.7,0,1.3,0.3,1.8,0.8c0.5,0.5,0.8,1.2,0.8,1.9
				c0,0.7-0.3,1.4-0.8,1.9c-0.5,0.5-1.1,0.8-1.8,0.8c-0.7,0-1.4-0.2-1.9-0.8C605.1,287.2,604.8,286.6,604.8,285.9z M608.8,336.3H606
				v-37.5h2.8V336.3z"/>
			<path class="st4" d="M629.3,274.4h2.7v24.9h12.2v2.7H632v34.3h-2.7V302h-8.8v-2.7h8.8V274.4z"/>
		</g>
		<rect x="731.5" y="263.3" class="st2" width="621.7" height="109.1"/>
		<g class="st3">
			<path class="st4" d="M774.1,273.9c-0.3,0.3-0.6,0.7-0.8,1.1c-0.2,0.4-0.5,0.8-0.8,1.1c-0.6-0.5-1.4-1.1-2.2-1.8
				c-0.9-0.6-1.9-1.2-3.1-1.8c-1.2-0.6-2.5-1-3.9-1.4c-1.5-0.4-3-0.5-4.7-0.5c-2.5,0-4.6,0.4-6.5,1.2c-1.8,0.8-3.4,2-4.6,3.4
				c-1.2,1.4-2.2,3-2.8,4.8c-0.6,1.8-0.9,3.7-0.9,5.6c0,2,0.3,3.7,0.9,5.2c0.6,1.4,1.5,2.6,2.6,3.6c1.1,1,2.5,1.9,4.1,2.6
				c1.6,0.7,3.4,1.4,5.4,2.1c2.1,0.7,4.4,1.5,7.1,2.4c2.7,0.8,5.2,2,7.6,3.5c2.4,1.5,4.4,3.4,6,5.8c1.6,2.3,2.4,5.3,2.4,9
				c0,2.9-0.5,5.6-1.6,8c-1.1,2.4-2.6,4.4-4.5,6.1c-1.9,1.7-4.2,3-6.8,3.9c-2.6,0.9-5.3,1.3-8.2,1.3c-2.6,0-5-0.3-7.2-1
				c-2.2-0.7-4.1-1.5-5.8-2.5c-1.7-1-3.1-2-4.3-3c-1.2-1-2.1-1.9-2.8-2.7l2-2c0.9,1,2,2,3.2,3s2.5,1.9,4,2.7c1.5,0.8,3.1,1.5,4.8,2
				c1.7,0.5,3.6,0.8,5.7,0.8c2.4,0,4.7-0.4,7-1.1c2.2-0.8,4.2-1.9,5.9-3.2c1.7-1.4,3.1-3.1,4.2-5.2c1-2,1.5-4.3,1.5-6.8
				c0-3.1-0.7-5.6-2-7.7c-1.3-2-3-3.7-5-5c-2-1.3-4.2-2.4-6.7-3.2c-2.4-0.8-4.7-1.6-6.9-2.3c-1.2-0.3-2.7-0.8-4.4-1.5
				c-1.7-0.6-3.4-1.5-5-2.7c-1.6-1.2-3-2.6-4.1-4.4c-1.2-1.8-1.8-4-2-6.7c-0.1-2.2,0.1-4.4,0.8-6.6c0.6-2.2,1.7-4.2,3.1-6.1
				c1.4-1.8,3.3-3.2,5.6-4.3c2.3-1.1,5-1.7,8.2-1.7c2.5,0,5.1,0.4,7.6,1.3C768.8,270.1,771.4,271.6,774.1,273.9z"/>
			<path class="st4" d="M799.3,276.4h2.7v24.9h12.2v2.7H802v34.3h-2.7V304h-8.8v-2.7h8.8V276.4z"/>
			<path class="st4" d="M853.8,338.5H851V333l0.3-4.5c-1.3,3.2-3.5,5.8-6.5,7.6c-3,1.9-6.3,2.9-10,2.9c-3.6,0-6.4-1-8.5-3.1
				c-2.1-2.1-3.2-4.8-3.3-8.1v-27h2.8v26.8c0.1,2.3,1,4.3,2.5,6c1.5,1.7,3.7,2.6,6.6,2.7c2.1,0,4.2-0.3,6.2-1c2-0.7,3.7-1.7,5.2-3
				c1.5-1.3,2.6-2.8,3.5-4.5c0.9-1.8,1.3-3.7,1.3-5.8v-21.2h2.8V338.5z"/>
			<path class="st4" d="M870.3,319.5c0-2.7,0.5-5.2,1.5-7.6c1-2.4,2.4-4.5,4.2-6.2c1.8-1.7,3.8-3.1,6.2-4.2c2.4-1,4.9-1.5,7.6-1.5
				c2,0,3.9,0.3,5.8,0.8c1.8,0.6,3.5,1.4,5,2.4c1.5,1,2.8,2.2,3.9,3.5c1.1,1.3,1.9,2.7,2.4,4.2c0-0.9,0-1.7,0-2.5
				c0-0.8-0.1-1.6-0.1-2.5v-42.6h2.8v75h-2.6v-5c0-0.9,0-1.7,0.1-2.5c0-0.8,0-1.7,0-2.7c-1.1,3-3.2,5.5-6.2,7.7
				c-3,2.1-6.7,3.2-10.9,3.2c-2.7,0-5.3-0.5-7.6-1.5c-2.4-1-4.4-2.4-6.2-4.2c-1.8-1.7-3.2-3.8-4.2-6.2
				C870.8,324.8,870.3,322.2,870.3,319.5z M873.1,319.5c0,2.3,0.4,4.5,1.3,6.5c0.9,2,2,3.8,3.5,5.3s3.3,2.7,5.3,3.5
				c2,0.9,4.2,1.3,6.5,1.3c2.3,0,4.5-0.4,6.6-1.3c2.1-0.9,3.8-2,5.3-3.5s2.7-3.3,3.5-5.3c0.9-2,1.3-4.2,1.3-6.5
				c0-2.3-0.4-4.5-1.3-6.5c-0.9-2-2-3.8-3.5-5.4c-1.5-1.5-3.3-2.7-5.3-3.6c-2.1-0.9-4.3-1.3-6.6-1.3c-2.3,0-4.5,0.4-6.5,1.3
				c-2,0.9-3.8,2.1-5.3,3.6c-1.5,1.5-2.7,3.3-3.5,5.4C873.5,315,873.1,317.2,873.1,319.5z"/>
			<path class="st4" d="M924,287.9c0-0.7,0.3-1.4,0.8-1.9c0.5-0.5,1.2-0.8,1.9-0.8c0.7,0,1.3,0.3,1.8,0.8c0.5,0.5,0.8,1.2,0.8,1.9
				c0,0.7-0.3,1.4-0.8,1.9c-0.5,0.5-1.1,0.8-1.8,0.8c-0.7,0-1.4-0.2-1.9-0.8C924.2,289.3,924,288.6,924,287.9z M928,338.3h-2.8
				v-37.5h2.8V338.3z"/>
			<path class="st4" d="M939.1,319.5c0-2.7,0.5-5.2,1.5-7.6c1-2.4,2.4-4.5,4.2-6.2c1.7-1.8,3.8-3.2,6.2-4.2c2.4-1,4.9-1.6,7.6-1.6
				c2.7,0,5.3,0.5,7.7,1.6c2.4,1,4.5,2.4,6.2,4.2c1.8,1.8,3.2,3.9,4.2,6.2c1,2.4,1.5,4.9,1.5,7.6c0,2.7-0.5,5.3-1.5,7.6
				c-1,2.4-2.4,4.4-4.2,6.2c-1.8,1.7-3.8,3.1-6.2,4.2c-2.4,1-5,1.5-7.7,1.5c-2.7,0-5.3-0.5-7.6-1.5c-2.4-1-4.4-2.4-6.2-4.2
				c-1.7-1.7-3.1-3.8-4.2-6.2C939.6,324.8,939.1,322.2,939.1,319.5z M941.9,319.5c0,2.3,0.4,4.5,1.3,6.5c0.9,2,2,3.8,3.5,5.3
				s3.3,2.7,5.3,3.5c2,0.9,4.2,1.3,6.5,1.3c2.3,0,4.5-0.4,6.5-1.3c2-0.9,3.8-2,5.4-3.5c1.5-1.5,2.7-3.3,3.6-5.3
				c0.9-2,1.3-4.2,1.3-6.5c0-2.3-0.4-4.5-1.3-6.5c-0.9-2-2.1-3.8-3.6-5.4c-1.5-1.5-3.3-2.7-5.4-3.6c-2-0.9-4.2-1.3-6.5-1.3
				c-2.3,0-4.5,0.4-6.5,1.3c-2,0.9-3.8,2.1-5.3,3.6c-1.5,1.5-2.7,3.3-3.5,5.4C942.3,315,941.9,317.2,941.9,319.5z"/>
			<path class="st4" d="M1010,304.6c-0.3,0.3-0.5,0.7-0.8,1c-0.3,0.3-0.6,0.7-0.9,1c-0.9-1.1-2.2-2-3.8-2.6c-1.6-0.6-3.2-1-4.7-1
				c-0.8,0-1.6,0.1-2.5,0.4c-0.9,0.3-1.7,0.7-2.5,1.2c-0.7,0.5-1.3,1.3-1.8,2.2c-0.5,0.9-0.8,2-0.8,3.3c0,1.7,0.5,3.1,1.5,4
				c1,0.9,2.2,1.7,3.6,2.3c1.4,0.6,3,1.1,4.7,1.6c1.7,0.5,3.2,1.1,4.6,1.8c1.4,0.8,2.6,1.8,3.6,3c0.9,1.2,1.4,3,1.4,5.2
				c0,1.2-0.2,2.5-0.6,3.8c-0.4,1.3-1.1,2.5-2.1,3.6c-1,1.1-2.2,2-3.7,2.7s-3.3,1-5.4,1c-1.9,0-3.9-0.3-6.1-1s-4-1.9-5.4-3.7
				c0.3-0.3,0.6-0.6,0.9-0.9c0.3-0.3,0.6-0.6,1-1c0.5,0.6,1.1,1.1,1.9,1.6c0.8,0.5,1.6,0.9,2.5,1.2c0.9,0.3,1.8,0.6,2.8,0.8
				c1,0.2,1.9,0.3,2.8,0.3c0.8,0,1.7-0.2,2.7-0.5c1-0.3,2-0.8,2.8-1.5c0.9-0.7,1.7-1.5,2.2-2.5c0.6-1,0.9-2.2,0.9-3.6
				c0-1.9-0.5-3.3-1.4-4.3c-0.9-1-2.1-1.9-3.5-2.5c-1.4-0.6-3-1.2-4.6-1.6c-1.7-0.4-3.2-1-4.7-1.6c-1.4-0.7-2.6-1.6-3.6-2.8
				c-1-1.2-1.5-2.8-1.5-5c0-1.7,0.3-3.1,1-4.4c0.6-1.3,1.4-2.3,2.4-3.2c1-0.9,2.1-1.5,3.4-1.9c1.3-0.4,2.5-0.7,3.7-0.7
				c1.4,0,3.1,0.3,5,1C1006.9,301.9,1008.6,303,1010,304.6z"/>
		</g>
		<g>
			<polygon class="st1" points="784.9,404.6 783,400.8 834.5,374.5 836.4,378.4 			"/>
		</g>
		<g>
			<polygon class="st1" points="788.6,413 786.7,409.1 839.2,384.2 841.1,388.1 			"/>
		</g>
		<g>
			<polygon class="st1" points="796.2,452.8 796.2,448.5 855.4,447.8 855.5,452.1 			"/>
		</g>
		<g>
			<polygon class="st1" points="796.4,459.9 796.4,455.5 857.3,455.2 857.3,459.5 			"/>
		</g>
		<g>
			<polygon class="st1" points="855,467.3 796.7,467.3 796.7,463 855,463 			"/>
		</g>
		<g>
			<polygon class="st1" points="836,536.1 781.4,512.9 783.1,508.9 837.6,532.1 			"/>
		</g>
		<g>
			<polygon class="st1" points="830.5,545.5 777.9,519.6 779.8,515.7 832.4,541.6 			"/>
		</g>
		<g>
			<polygon class="st1" points="824.2,554.8 774.4,524.9 776.6,521.2 826.5,551.1 			"/>
		</g>
		<g>
			<polygon class="st1" points="818.4,563.5 770.6,530.5 773,527 820.9,560 			"/>
		</g>
		<g>
			<polygon class="st1" points="765.5,609.7 742.9,550.8 746.9,549 769.4,607.9 			"/>
		</g>
		<g>
			<polygon class="st1" points="765.8,610.3 725.8,563.8 729,561 769.1,607.5 			"/>
		</g>
		<g>
			<polygon class="st1" points="677.3,633.8 673.1,633.1 682.5,571.2 686.8,571.8 			"/>
		</g>
		<g>
			<polygon class="st1" points="674.4,633.8 664.3,570.5 668.6,569.8 678.7,633.1 			"/>
		</g>
		<g>
			<polygon class="st1" points="692.2,631.5 687.9,631.4 688.9,571.1 693.2,571.2 			"/>
		</g>
		<g>
			<polygon class="st1" points="611.5,617.8 607.6,616.1 632.2,561.2 636.1,563 			"/>
		</g>
		<g>
			<polygon class="st1" points="600.3,612.6 596.6,610.5 626.5,558.6 630.3,560.8 			"/>
		</g>
		<g>
			<polygon class="st1" points="584.5,603 581.4,600 622.8,556.5 625.9,559.5 			"/>
		</g>
		<g>
			<polygon class="st1" points="584.9,602.4 581,600.5 606.9,548 610.8,549.9 			"/>
		</g>
		<g>
			<polygon class="st1" points="532.8,550.2 530.7,546.4 581.2,518.1 583.3,521.9 			"/>
		</g>
		<g>
			<polygon class="st1" points="527.7,540.8 525.8,536.9 577.7,512.3 579.5,516.2 			"/>
		</g>
		<g>
			<polygon class="st1" points="519.6,527.8 518.4,523.6 575.6,507.5 576.8,511.6 			"/>
		</g>
		<g>
			<polygon class="st1" points="521.5,527.9 519.2,524.2 570,491.9 572.3,495.5 			"/>
		</g>
		<g>
			<polygon class="st1" points="564.4,467.9 506.5,467.9 506.5,463.6 564.4,463.6 			"/>
		</g>
		<g>
			<polygon class="st1" points="503.5,459.7 502.8,455.5 566.8,445 567.5,449.3 			"/>
		</g>
		<g>
			<polygon class="st1" points="565.2,462.8 503.6,445.3 504.8,441.2 566.4,458.7 			"/>
		</g>
		<g>
			<line class="st2" x1="529.2" y1="360.3" x2="573" y2="402.5"/>
			<polygon class="st1" points="571.7,404 528,361.8 530.5,358.8 574.3,401 			"/>
		</g>
		<g>
			<line class="st2" x1="524.8" y1="375.4" x2="582.6" y2="391.9"/>
			<polygon class="st1" points="581.9,393.4 524.1,376.9 525.4,373.9 583.2,390.4 			"/>
		</g>
	</g>
</g>
</svg>
